<svg xmlns="http://www.w3.org/2000/svg" width="315" height="96" viewBox="0 0 315 96" role="img" aria-label="Scrub">
  <title>Scrub</title>
  <defs>
    <linearGradient id="g" x1="0" y1="0" x2="1" y2="1">
      <stop offset="0%" stop-color="#00FFCC"/>
      <stop offset="55%" stop-color="#1FB6FF"/>
      <stop offset="100%" stop-color="#8A2BE2"/>
    </linearGradient>
    <filter id="glow" x="-30%" y="-30%" width="160%" height="160%">
      <feGaussianBlur stdDeviation="3" result="b"/>
      <feMerge><feMergeNode in="b"/><feMergeNode in="SourceGraphic"/></feMerge>
    </filter>
  </defs>
  <g fill="url(#g)" filter="url(#glow)">
    <path d="M171 0 Q138 0 110 16 Q83 32 67 59 Q51 87 51 120 L51 148 L132 148 L132 120 Q132 104 143 92 Q155 81 171 81 L651 81 Q667 81 678 92 Q690 104 690 120 L690 281 Q690 297 678 308 Q667 319 651 319 L171 319 Q138 319 110 335 Q83 352 67 379 Q51 406 51 439 L51 600 Q51 633 67 660 Q83 688 110 704 Q138 720 171 720 L651 720 Q684 720 711 704 Q739 688 755 660 Q771 633 771 600 L771 572 L690 572 L690 600 Q690 616 678 627 Q667 639 651 639 L171 639 Q155 639 143 627 Q132 616 132 600 L132 439 Q132 423 143 412 Q155 401 171 401 L651 401 Q684 401 711 384 Q739 368 755 341 Q771 314 771 281 L771 120 Q771 87 755 59 Q739 32 711 16 Q684 0 651 0 L171 0 Z" transform="translate(36.00,70.0) scale(0.05104,-0.05104)"/>
    <path d="M176 0 Q143 0 115 16 Q88 32 72 59 Q56 87 56 120 L56 600 Q56 633 72 660 Q88 688 115 704 Q143 720 176 720 L774 720 L774 639 L176 639 Q160 639 148 627 Q137 616 137 600 L137 120 Q137 104 148 92 Q160 81 176 81 L774 81 L774 0 L176 0 Z" transform="translate(85.95,70.0) scale(0.05104,-0.05104)"/>
    <path d="M664 0 L429 280 L535 280 L771 1 L771 0 L664 0 M56 0 L56 719 L656 719 Q689 719 716 702 Q744 686 760 659 Q776 632 776 599 L776 388 Q776 355 760 328 Q744 301 716 284 Q689 268 656 268 L137 268 L137 0 L56 0 M176 350 L656 350 Q672 350 683 361 Q695 372 695 388 L695 599 Q695 615 683 626 Q672 638 656 638 L176 638 Q160 638 148 626 Q137 615 137 599 L137 388 Q137 372 148 361 Q160 350 176 350 Z" transform="translate(135.90,70.0) scale(0.05104,-0.05104)"/>
    <path d="M174 0 Q141 0 113 16 Q86 32 70 59 Q54 87 54 120 L54 720 L135 720 L135 120 Q135 104 146 92 Q158 81 174 81 L654 81 Q670 81 681 92 Q693 104 693 120 L693 720 L774 720 L774 120 Q774 87 758 59 Q742 32 714 16 Q687 0 654 0 L174 0 L174 0 Z" transform="translate(186.01,70.0) scale(0.05104,-0.05104)"/>
    <path d="M59 0 L59 720 L628 720 Q661 720 688 704 Q716 688 732 660 Q748 633 748 600 L748 447 Q748 433 744 419 Q741 406 735 394 Q757 361 768 337 Q779 313 779 288 L779 120 Q779 87 763 59 Q747 32 719 16 Q692 0 659 0 L59 0 L59 0 M179 81 L659 81 Q675 81 686 92 Q698 104 698 120 L698 288 Q698 304 686 315 Q675 327 659 327 L179 327 Q163 327 151 315 Q140 304 140 288 L140 120 Q140 104 151 92 Q163 81 179 81 M179 408 L628 408 Q644 408 655 419 Q666 431 666 447 L666 600 Q666 616 655 627 Q644 639 628 639 L179 639 Q163 639 151 627 Q140 616 140 600 L140 447 Q140 431 151 419 Q163 408 179 408 Z" transform="translate(236.27,70.0) scale(0.05104,-0.05104)"/>
  </g>
</svg>
